<?xml version="1.0" encoding="UTF-8" standalone="no"?>
<!-- Created with Inkscape (http://www.inkscape.org/) -->

<svg
   xmlns:dc="http://purl.org/dc/elements/1.1/"
   xmlns:cc="http://creativecommons.org/ns#"
   xmlns:rdf="http://www.w3.org/1999/02/22-rdf-syntax-ns#"
   xmlns:svg="http://www.w3.org/2000/svg"
   xmlns="http://www.w3.org/2000/svg"
   xmlns:sodipodi="http://sodipodi.sourceforge.net/DTD/sodipodi-0.dtd"
   xmlns:inkscape="http://www.inkscape.org/namespaces/inkscape"
   width="74.902649"
   height="49.352928"
   viewBox="0 0 19.817993 13.057962"
   version="1.1"
   id="svg14842"
   inkscape:version="0.92.0 r15299"
   sodipodi:docname="the leela.svg">
  <defs
     id="defs14836" />
  <sodipodi:namedview
     id="base"
     pagecolor="#ffffff"
     bordercolor="#666666"
     borderopacity="1.0"
     inkscape:pageopacity="0.0"
     inkscape:pageshadow="2"
     inkscape:zoom="11.023116"
     inkscape:cx="36.951324"
     inkscape:cy="24.176466"
     inkscape:document-units="mm"
     inkscape:current-layer="layer1"
     showgrid="false"
     fit-margin-top="0"
     fit-margin-left="0"
     fit-margin-right="0"
     fit-margin-bottom="0"
     units="px"
     inkscape:window-width="1280"
     inkscape:window-height="744"
     inkscape:window-x="-4"
     inkscape:window-y="-4"
     inkscape:window-maximized="1" />
  <metadata
     id="metadata14839">
    <rdf:RDF>
      <cc:Work
         rdf:about="">
        <dc:format>image/svg+xml</dc:format>
        <dc:type
           rdf:resource="http://purl.org/dc/dcmitype/StillImage" />
        <dc:title></dc:title>
      </cc:Work>
    </rdf:RDF>
  </metadata>
  <g
     inkscape:label="Layer 1"
     inkscape:groupmode="layer"
     id="layer1"
     transform="translate(-2.6965098,-142.17238)">
    <g
       id="g14914"
       transform="translate(0.13229166,-0.13228985)">
      <path
         inkscape:connector-curvature="0"
         id="path12470"
         style="fill:#231f20;fill-opacity:1;fill-rule:evenodd;stroke:none;stroke-width:0.35277778"
         d="m 3.6423018,154.77642 h -0.119592 v -0.32279 h 0.115711 c 0.128764,0 0.186267,0.049 0.186267,0.1584 0,0.11535 -0.05468,0.16439 -0.182386,0.16439 m 0.01834,-0.42933 h -0.255411 v 0.87065 h 0.117475 v -0.33584 h 0.119592 c 0.195792,0 0.303742,-0.0995 0.303742,-0.28081 0,-0.16616 -0.09878,-0.254 -0.285398,-0.254" />
      <path
         inkscape:connector-curvature="0"
         id="path12474"
         style="fill:#231f20;fill-opacity:1;fill-rule:evenodd;stroke:none;stroke-width:0.35277778"
         d="m 4.4692138,154.5203 c 0.0088,-0.0279 0.01587,-0.0511 0.02081,-0.0674 0.0042,0.013 0.0088,0.0296 0.01446,0.0476 0.01164,0.036 0.02434,0.0773 0.02752,0.0903 l 0.08678,0.27305 h -0.259292 l 0.08925,-0.27587 c 0.0025,-0.01 0.01129,-0.0378 0.02046,-0.0677 m 0.104422,-0.17321 h -0.1651 l -0.277989,0.85725 -0.0042,0.0134 h 0.121003 l 0.07902,-0.24765 h 0.327025 l 0.0762,0.24059 0.0025,0.007 h 0.123473 l -0.279753,-0.8636" />
      <path
         inkscape:connector-curvature="0"
         id="path12478"
         style="fill:#231f20;fill-opacity:1;fill-rule:evenodd;stroke:none;stroke-width:0.35277778"
         d="m 5.2227468,154.34709 h -0.117475 v 0.87066 h 0.4825999 v -0.10654 H 5.2227468" />
      <path
         inkscape:connector-curvature="0"
         id="path12482"
         style="fill:#231f20;fill-opacity:1;fill-rule:evenodd;stroke:none;stroke-width:0.35277778"
         d="m 6.0856408,154.5203 c 0.0088,-0.0279 0.01588,-0.0511 0.020809,-0.0674 0.0039,0.013 0.0092,0.0296 0.01446,0.0476 0.011639,0.036 0.024339,0.0773 0.02752,0.0903 l 0.08678,0.27305 h -0.259292 l 0.08925,-0.27587 c 0.00249,-0.01 0.01129,-0.0378 0.02046,-0.0677 m 0.104422,-0.17321 h -0.1651 l -0.277636,0.85725 -0.0042,0.0134 h 0.12065 l 0.07902,-0.24765 h 0.327025 l 0.0762,0.24059 0.00249,0.007 h 0.1234728 l -0.2797529,-0.8636" />
      <path
         inkscape:connector-curvature="0"
         id="path12486"
         style="fill:#231f20;fill-opacity:1;fill-rule:evenodd;stroke:none;stroke-width:0.35277778"
         d="m 7.0303798,154.44269 c 0.09102,0 0.137583,0.0293 0.167922,0.0547 l 0.0081,0.007 0.07338,-0.09 -0.0074,-0.006 c -0.03104,-0.0272 -0.1030121,-0.0727 -0.2321282,-0.0727 -0.227542,0 -0.3584221,0.16546 -0.3584221,0.45403 0,0.28822 0.1192382,0.44062 0.3450162,0.44062 0.1418169,0 0.210961,-0.0466 0.2398889,-0.0744 l 0.0064,-0.006 -0.06562,-0.0857 -0.0085,0.008 c -0.03387,0.0328 -0.08714,0.0494 -0.15875,0.0494 -0.1972029,0 -0.2384779,-0.18486 -0.2384779,-0.34008 0,-0.22119 0.07902,-0.33796 0.2286,-0.33796" />
      <path
         inkscape:connector-curvature="0"
         id="path12490"
         style="fill:#231f20;fill-opacity:1;fill-rule:evenodd;stroke:none;stroke-width:0.35277778"
         d="m 7.6794908,154.82969 h 0.3115029 v -0.10654 H 7.6794908 v -0.26917 h 0.354189 v -0.10689 h -0.471664 v 0.8703 h 0.488597 v -0.10583 h -0.371122" />
      <path
         inkscape:connector-curvature="0"
         id="path12494"
         style="fill:#231f20;fill-opacity:1;fill-rule:evenodd;stroke:none;stroke-width:0.35277778"
         d="m 8.6147048,154.73162 c -0.09384,-0.043 -0.174978,-0.0801 -0.174978,-0.16475 0,-0.0748 0.05856,-0.12312 0.1488721,-0.12312 0.06138,0 0.1121841,0.0176 0.1598091,0.0561 l 0.0081,0.006 0.07197,-0.0914 -0.0078,-0.006 c -0.03351,-0.0279 -0.1068911,-0.0737 -0.2261301,-0.0737 -0.155575,0 -0.273403,0.10195 -0.273403,0.23777 0,0.1517 0.124178,0.20779 0.233539,0.25753 0.09208,0.0416 0.171803,0.078 0.171803,0.15981 0,0.0801 -0.06562,0.13158 -0.167217,0.13158 -0.1037169,0 -0.169686,-0.0444 -0.2102559,-0.0776 l -0.0081,-0.007 -0.06385,0.0864 -0.0053,0.007 0.0067,0.006 c 0.03104,0.0279 0.119239,0.0924 0.2726971,0.0924 0.172861,0 0.293864,-0.10124 0.293864,-0.24588 0,-0.14676 -0.122414,-0.20285 -0.230364,-0.25224" />
      <path
         inkscape:connector-curvature="0"
         id="path12498"
         style="fill:#231f20;fill-opacity:1;fill-rule:evenodd;stroke:none;stroke-width:0.35277778"
         d="m 10.609663,154.72421 h -0.390525 v -0.37712 h -0.117475 v 0.8703 h 0.117475 v -0.38664 h 0.390525 v 0.38664 h 0.117475 v -0.8703 h -0.117475" />
      <path
         inkscape:connector-curvature="0"
         id="path12502"
         style="fill:#231f20;fill-opacity:1;fill-rule:evenodd;stroke:none;stroke-width:0.35277778"
         d="m 11.605202,154.78665 c 0,0.29704 -0.117122,0.33549 -0.219075,0.33549 -0.150989,0 -0.221544,-0.10936 -0.221544,-0.34396 3.44e-4,-0.29704 0.116416,-0.33549 0.218016,-0.33549 0.0956,0 0.222603,0.0356 0.222603,0.34396 m -0.215547,-0.45156 c -0.2286,0 -0.344664,0.15205 -0.344664,0.45156 0,0.2981 0.109714,0.44344 0.335139,0.44344 0.157691,-3.4e-4 0.344664,-0.0787 0.344664,-0.45191 0,-0.29809 -0.109361,-0.44309 -0.335139,-0.44309" />
      <path
         inkscape:connector-curvature="0"
         id="path12506"
         style="fill:#231f20;fill-opacity:1;fill-rule:evenodd;stroke:none;stroke-width:0.35277778"
         d="m 11.943516,154.45363 h 0.226836 v 0.76376 h 0.117475 v -0.76376 h 0.225425 v -0.10654 h -0.569736" />
      <path
         inkscape:connector-curvature="0"
         id="path12510"
         style="fill:#231f20;fill-opacity:1;fill-rule:evenodd;stroke:none;stroke-width:0.35277778"
         d="m 12.889313,154.82969 h 0.311503 v -0.10654 h -0.311503 v -0.26917 h 0.354189 v -0.10689 h -0.471664 v 0.8703 h 0.488597 v -0.10583 h -0.371122" />
      <path
         inkscape:connector-curvature="0"
         id="path12514"
         style="fill:#231f20;fill-opacity:1;fill-rule:evenodd;stroke:none;stroke-width:0.35277778"
         d="m 13.678477,154.34709 h -0.117475 v 0.87066 h 0.4826 v -0.10654 h -0.365125" />
      <path
         inkscape:connector-curvature="0"
         id="path12518"
         style="fill:#231f20;fill-opacity:1;fill-rule:evenodd;stroke:none;stroke-width:0.35277778"
         d="m 14.569947,154.73162 c -0.09384,-0.043 -0.174978,-0.0801 -0.174978,-0.16475 0,-0.0748 0.05856,-0.12312 0.148872,-0.12312 0.06138,0 0.112184,0.0176 0.159809,0.0561 l 0.0078,0.006 0.07197,-0.0914 -0.0074,-0.006 c -0.03351,-0.0279 -0.106891,-0.0737 -0.22613,-0.0737 -0.155928,0 -0.273403,0.10195 -0.273403,0.23777 0,0.1517 0.124178,0.20779 0.233539,0.25753 0.09208,0.0416 0.17145,0.078 0.17145,0.15981 0,0.0801 -0.06526,0.13158 -0.166864,0.13158 -0.103717,0 -0.170039,-0.0444 -0.210256,-0.0776 l -0.0085,-0.007 -0.0635,0.0864 -0.0056,0.007 0.0071,0.006 c 0.03104,0.0279 0.119239,0.0924 0.272697,0.0924 0.172861,0 0.293511,-0.10124 0.293511,-0.24588 3.44e-4,-0.14676 -0.122061,-0.20285 -0.230011,-0.25224" />
      <path
         inkscape:connector-curvature="0"
         id="path12522"
         style="fill:#231f20;fill-opacity:1;fill-rule:evenodd;stroke:none;stroke-width:0.35277778"
         d="m 16.17438,154.45363 h 0.09278 c 0.131586,0 0.187325,0.0459 0.187325,0.15346 0,0.10336 -0.05927,0.15345 -0.181328,0.15345 h -0.09878 z m 0.222603,0.38064 c 0.09172,-0.0198 0.1778,-0.0977 0.1778,-0.23812 0,-0.16545 -0.09913,-0.24906 -0.294217,-0.24906 h -0.223661 v 0.8703 h 0.117475 v -0.35278 h 0.05644 c 0.05644,0 0.09102,0.0215 0.12312,0.0762 l 0.154164,0.27164 0.0028,0.005 h 0.139347 l -0.165779,-0.28077 c -0.03034,-0.0511 -0.0568,-0.0825 -0.08749,-0.10231" />
      <path
         inkscape:connector-curvature="0"
         id="path12526"
         style="fill:#231f20;fill-opacity:1;fill-rule:evenodd;stroke:none;stroke-width:0.35277778"
         d="m 17.046094,154.82969 h 0.311503 v -0.10654 h -0.311503 v -0.26917 h 0.353836 v -0.10689 h -0.471311 v 0.8703 h 0.488597 v -0.10583 h -0.371122" />
      <path
         inkscape:connector-curvature="0"
         id="path12530"
         style="fill:#231f20;fill-opacity:1;fill-rule:evenodd;stroke:none;stroke-width:0.35277778"
         d="m 17.981308,154.73162 c -0.09384,-0.043 -0.174978,-0.0801 -0.174978,-0.16475 0,-0.0748 0.05856,-0.12312 0.148872,-0.12312 0.06138,0 0.112184,0.0176 0.159809,0.0561 l 0.0081,0.006 0.07197,-0.0914 -0.0078,-0.006 c -0.03351,-0.0279 -0.106891,-0.0737 -0.22613,-0.0737 -0.155575,0 -0.273403,0.10195 -0.273403,0.23777 0,0.1517 0.124178,0.20779 0.233539,0.25753 0.09208,0.0416 0.17145,0.078 0.17145,0.15981 3.44e-4,0.0801 -0.06526,0.13158 -0.166864,0.13158 -0.103717,0 -0.170039,-0.0444 -0.210256,-0.0776 l -0.0085,-0.007 -0.06315,0.0864 -0.006,0.007 0.0071,0.006 c 0.03104,0.0279 0.119239,0.0924 0.272697,0.0924 0.172861,0 0.293864,-0.10124 0.293864,-0.24588 0,-0.14676 -0.122414,-0.20285 -0.230364,-0.25224" />
      <path
         inkscape:connector-curvature="0"
         id="path12534"
         style="fill:#231f20;fill-opacity:1;fill-rule:evenodd;stroke:none;stroke-width:0.35277778"
         d="m 19.036466,154.78665 c 0,0.29704 -0.117122,0.33549 -0.219075,0.33549 -0.150989,0 -0.221544,-0.10936 -0.221544,-0.34396 0,-0.29704 0.116416,-0.33549 0.218016,-0.33549 0.0956,0 0.222603,0.0356 0.222603,0.34396 m -0.215547,-0.45156 c -0.2286,0 -0.344664,0.15205 -0.344664,0.45156 0,0.2981 0.109361,0.44344 0.335139,0.44344 0.157339,-3.4e-4 0.345016,-0.0787 0.345016,-0.45191 0,-0.29809 -0.109713,-0.44309 -0.335491,-0.44309" />
      <path
         inkscape:connector-curvature="0"
         id="path12538"
         style="fill:#231f20;fill-opacity:1;fill-rule:evenodd;stroke:none;stroke-width:0.35277778"
         d="m 19.592444,154.45363 h 0.09278 c 0.131586,0 0.187325,0.0459 0.187325,0.15346 3.44e-4,0.10336 -0.05891,0.15345 -0.180975,0.15345 h -0.09913 z m 0.222603,0.38064 c 0.09172,-0.0198 0.177447,-0.0977 0.177447,-0.23812 0,-0.16545 -0.09878,-0.24906 -0.293864,-0.24906 h -0.223661 v 0.8703 h 0.117475 v -0.35278 h 0.05644 c 0.05644,0 0.09102,0.0215 0.12312,0.0762 l 0.154164,0.27164 0.0028,0.005 h 0.139347 l -0.165426,-0.28077 c -0.03069,-0.0511 -0.05715,-0.0825 -0.08784,-0.10231" />
      <path
         inkscape:connector-curvature="0"
         id="path12542"
         style="fill:#231f20;fill-opacity:1;fill-rule:evenodd;stroke:none;stroke-width:0.35277778"
         d="m 20.222152,154.45363 h 0.226836 v 0.76376 h 0.117122 v -0.76376 h 0.225778 v -0.10654 h -0.569736" />
      <path
         inkscape:connector-curvature="0"
         id="path12546"
         style="fill:#231f20;fill-opacity:1;fill-rule:evenodd;stroke:none;stroke-width:0.35277778"
         d="m 21.308708,154.73162 c -0.09384,-0.043 -0.174978,-0.0801 -0.174978,-0.16475 0,-0.0748 0.05856,-0.12312 0.148872,-0.12312 0.06138,0 0.112184,0.0176 0.159456,0.0561 l 0.0081,0.006 0.07197,-0.0914 -0.0074,-0.006 c -0.03351,-0.0279 -0.107244,-0.0737 -0.22613,-0.0737 -0.155575,0 -0.273403,0.10195 -0.273403,0.23777 0,0.1517 0.124178,0.20779 0.233539,0.25753 0.09172,0.0416 0.17145,0.078 0.17145,0.15981 0,0.0801 -0.06526,0.13158 -0.166864,0.13158 -0.103717,0 -0.170039,-0.0444 -0.210256,-0.0776 l -0.0085,-0.007 -0.06315,0.0864 -0.006,0.007 0.0071,0.006 c 0.03104,0.0279 0.119239,0.0924 0.272344,0.0924 0.173214,0 0.293864,-0.10124 0.293864,-0.24588 0,-0.14676 -0.122061,-0.20285 -0.230011,-0.25224" />
      <path
         inkscape:connector-curvature="0"
         id="path12550"
         style="fill:#231f20;fill-opacity:1;fill-rule:evenodd;stroke:none;stroke-width:0.35277778"
         d="m 12.348152,143.47836 c -0.125589,0.26141 -0.232128,0.58208 -0.313267,0.97331 l -0.269875,1.30069 c -0.785636,-0.13405 -1.424869,-0.58349 -1.424869,-1.32644 0,-0.62195 0.477308,-1.10596 1.240014,-1.10596 0.28328,0 0.540455,0.0571 0.767997,0.1584 m -2.257072,3.33904 c 0.456847,0 0.878416,0.10054 1.308805,0.23918 -0.116769,0.26494 -0.262466,0.47908 -0.457905,0.62371 -0.0508,0.0381 -0.105128,0.0709 -0.163336,0.0988 -0.138642,-0.0127 -0.281517,-0.0197 -0.428625,-0.0197 -0.274814,0 -0.4053422,0.0134 -0.4053422,0.0134 v -3.4e-4 h -3.439e-4 l -0.1961441,0.5461 c 0.2843392,-0.11395 0.7489472,-0.28434 1.3148032,-0.28434 0.513291,0 0.966963,0.11465 1.407583,0.26 -0.63747,0.44273 -1.344789,0.8128 -2.199217,0.8128 -1.0795001,0 -1.5472832,-0.53587 -1.5472832,-1.14159 0,-0.36654 0.1626312,-0.66781 0.433211,-0.86924 0.239536,-0.17816 0.563386,-0.2787 0.9338032,-0.2787 m 4.776602,-3.27202 c 0,1.1811 -0.827617,1.89265 -1.788936,2.14524 -0.167922,0.0437 -0.339725,0.0737 -0.511528,0.0903 0,-0.001 3.44e-4,-0.002 3.44e-4,-0.004 l 0.275519,-1.32468 c 0.03986,-0.19262 0.08185,-0.36583 0.125236,-0.52176 0.11042,0.12312 0.202495,0.26035 0.27552,0.4064 0.04127,0.0819 0.07726,0.16616 0.105833,0.25294 v -3.5e-4 l 0.01482,-0.0399 0.03739,-0.10407 c -0.07796,-0.2032 -0.194733,-0.39758 -0.343605,-0.56938 -0.01799,-0.0208 -0.03669,-0.0416 -0.05609,-0.0621 0.311503,-1.03152 0.703439,-1.23649 1.099961,-1.23649 0.175331,0 0.346781,0.0642 0.4826,0.19297 0.168628,0.1591 0.282928,0.41698 0.282928,0.77505 m 1.398764,4.0192 c -0.143582,-0.41208 -0.541162,-0.73769 -1.169812,-0.73769 -0.577498,0 -1.113014,0.34184 -1.676048,0.76058 -0.575733,-0.121 -1.07068,-0.30268 -1.5367,-0.4699 0.06562,-0.0656 0.129823,-0.13758 0.191912,-0.21801 0.190146,-0.24659 0.359126,-0.57009 0.466371,-1.01283 1.095728,-0.0896 2.179814,-0.72107 2.392186,-1.90888 0.02469,-0.13687 0.03845,-0.28045 0.03845,-0.43215 0,-0.0536 -0.0035,-0.10477 -0.0078,-0.15487 -0.0046,-0.0469 -0.01058,-0.0924 -0.0187,-0.13652 -0.0088,-0.0483 -0.01976,-0.0956 -0.03316,-0.14006 -0.0021,-0.007 -0.0039,-0.0155 -0.006,-0.0226 -0.129469,-0.4004 -0.445911,-0.63217 -0.909461,-0.63217 -0.971904,0 -1.377598,1.39029 -1.501776,1.99213 l -0.27445,1.32539 c -0.01588,0.0744 -0.0314,0.14499 -0.04727,0.21378 -0.146756,0.63253 -0.318912,1.03399 -0.573264,1.34761 -0.0127,0.0148 -0.0247,0.03 -0.0374,0.0448 l 0.0127,0.004 c 0.07479,-0.0572 0.151695,-0.1203 0.227542,-0.19121 0.462139,0.16263 0.950736,0.3429 1.512711,0.47026 -0.23495,0.17709 -0.475192,0.36477 -0.725664,0.54398 -0.538692,-0.1711 -1.072797,-0.34325 -1.670755,-0.41557 0.2159,-0.10689 0.397227,-0.24307 0.552802,-0.42863 0.2794,-0.33267 0.474486,-0.82409 0.633589,-1.58891 l 0.275167,-1.32468 c 0.291042,-1.40688 0.811036,-1.85526 1.213555,-2.00872 l -0.01023,-0.007 c -0.447675,0.0893 -0.872067,0.34925 -1.187803,0.94545 -0.03069,-0.0141 -0.06244,-0.0268 -0.09454,-0.0392 -0.0028,-0.001 -0.0056,-0.002 -0.0085,-0.003 -0.0078,-0.003 -0.01623,-0.005 -0.02364,-0.008 -0.208138,-0.0748 -0.439913,-0.11642 -0.690385,-0.11642 -0.12947,0 -0.251178,0.0131 -0.364772,0.0374 -0.61207,0.13194 -0.980017,0.59902 -0.980017,1.17334 0,0.80751 0.676275,1.28729 1.508478,1.42805 -0.08784,0.41557 -0.179564,0.79551 -0.306211,1.1116 -0.443089,-0.14464 -0.873125,-0.25329 -1.345848,-0.25329 -0.3721802,0 -0.700616,0.0952 -0.9521472,0.26599 -0.32385,0.21872 -0.520347,0.56197 -0.520347,0.98742 0,0.66393 0.5005922,1.24637 1.6517052,1.24637 0.91687,0 1.661937,-0.40605 2.325864,-0.87524 0.718256,0.24694 1.412875,0.55456 2.287059,0.55456 0.762352,0 1.1684,-0.39581 1.253419,-0.81139 l -0.0099,-0.003 c -0.134408,0.26812 -0.572911,0.55916 -1.334911,0.55916 -0.783166,0 -1.436158,-0.18556 -2.074686,-0.38594 0.254706,-0.18556 0.498122,-0.37712 0.734836,-0.55492 0.343253,0.0705 0.714375,0.11994 1.12395,0.133 l 0.03916,-0.10125 v -3.4e-4 c -0.383117,-0.008 -0.732014,-0.0505 -1.055512,-0.11148 0.519642,-0.38241 1.012825,-0.68333 1.536348,-0.68333 0.559505,0 0.912988,0.28328 1.054805,0.6417 0.04692,0.11959 0.07056,0.2473 0.07056,0.37571 0,0.65087 -0.539398,1.05304 -1.324681,1.05304 -0.929216,0 -1.576564,-0.33655 -2.018594,-0.46743 l -0.0032,0.01 c 0.542925,0.24553 1.373716,0.70309 2.15265,0.70309 0.856897,0 1.298575,-0.56551 1.298575,-1.32116 0,-0.12382 -0.02011,-0.24659 -0.06032,-0.36195" />
      <path
         inkscape:connector-curvature="0"
         id="path12554"
         style="fill:#231f20;fill-opacity:1;fill-rule:evenodd;stroke:none;stroke-width:0.35277778"
         d="m 4.7295638,151.43209 -0.09384,-0.48084 h -1.843264 l -0.09595,0.48084 0.02928,0.0148 0.160514,-0.20497 c 0.127706,-0.15981 0.177095,-0.20179 0.315383,-0.20179 h 0.281164 v 1.51801 l -0.283633,0.049 v 0.0469 h 1.047397 v -0.0469 l -0.283633,-0.049 v -1.51801 h 0.261408 c 0.137936,0 0.184503,0.042 0.312561,0.20179 l 0.162984,0.20214 z m 2.0729221,0.29315 h -0.966258 v -0.6805 l 0.2659941,-0.0462 v -0.0473 H 5.0943358 v 0.0473 l 0.2638781,0.0462 v 1.51341 l -0.2638781,0.049 v 0.0469 H 6.102222 v -0.0469 l -0.2659941,-0.049 v -0.74401 h 0.966258 v 0.74401 l -0.2638782,0.049 v 0.0469 h 1.007886 v -0.0469 l -0.2638768,-0.049 v -1.51341 l 0.2638768,-0.0462 v -0.0473 h -1.007886 v 0.0473 l 0.2638782,0.0462 z m 2.8790199,-0.77399 H 8.054847 v 0.0473 l 0.263525,0.0462 v 1.51342 l -0.263525,0.049 v 0.0469 h 1.7423699 l 0.07373,-0.52211 -0.02681,-0.01 -0.2342441,0.30056 c -0.0762,0.096 -0.1086559,0.14041 -0.2688169,0.14041 H 8.799208 v -0.73164 h 0.07161 c 0.2931592,0 0.4187471,0.33972 0.4187471,0.33972 h 0.011991 c 0,0 -0.04163,-0.31503 -0.1576919,-0.37923 0.1135949,-0.0519 0.1576919,-0.37183 0.1576919,-0.37183 l -0.011991,-3.4e-4 c 0,0 -0.13335,0.33761 -0.4187471,0.33761 h -0.07161 v -0.7172 h 0.4039309 c 0.1651,0 0.2120191,0.0445 0.3132669,0.15804 l 0.2067272,0.22931 0.02222,-0.0205 z m 3.6029192,1.18075 -0.0247,-0.01 -0.231775,0.30056 c -0.07655,0.096 -0.108655,0.14041 -0.268816,0.14041 h -0.507646 v -1.51836 l 0.263877,-0.0462 v -0.0473 h -1.01035 v 0.0473 l 0.266347,0.0462 v 1.51342 l -0.266347,0.049 v 0.0469 h 1.710266 z m 1.9812,-1.18075 h -1.626658 v 0.0473 l 0.263525,0.0462 v 1.51342 l -0.263525,0.049 v 0.0469 h 1.742369 l 0.07408,-0.52211 -0.02716,-0.01 -0.233891,0.30056 c -0.07655,0.096 -0.108656,0.14041 -0.26917,0.14041 h -0.541867 v -0.73164 h 0.07126 c 0.293511,0 0.4191,0.33972 0.4191,0.33972 h 0.01199 c 0,0 -0.04128,-0.31503 -0.157691,-0.37923 0.113594,-0.0519 0.157691,-0.37183 0.157691,-0.37183 l -0.01199,-3.4e-4 c 0,0 -0.132997,0.33761 -0.4191,0.33761 h -0.07126 v -0.7172 h 0.404283 c 0.1651,0 0.212019,0.0445 0.312914,0.15804 l 0.20708,0.22931 0.02187,-0.0205 z m 2.319161,0 h -1.627011 v 0.0473 l 0.263878,0.0462 v 1.51342 l -0.263878,0.049 v 0.0469 h 1.742369 l 0.07444,-0.52211 -0.02716,-0.01 -0.234597,0.30056 c -0.0762,0.096 -0.108303,0.14041 -0.268464,0.14041 h -0.542227 v -0.73164 h 0.07161 c 0.293511,0 0.4191,0.33972 0.4191,0.33972 h 0.01235 c 0,0 -0.04198,-0.31503 -0.157692,-0.37923 0.112889,-0.0519 0.157692,-0.37183 0.157692,-0.37183 l -0.01235,-3.4e-4 c 0,0 -0.132997,0.33761 -0.4191,0.33761 h -0.07161 v -0.7172 h 0.404636 c 0.164747,0 0.211314,0.0445 0.312561,0.15804 l 0.207433,0.22931 0.02152,-0.0205 z m 2.468739,1.18075 -0.02399,-0.01 -0.232128,0.30056 c -0.07585,0.096 -0.108303,0.14041 -0.268464,0.14041 h -0.507647 v -1.51836 l 0.263525,-0.0462 v -0.0473 h -1.010003 v 0.0473 l 0.265642,0.0462 v 1.51342 l -0.265642,0.049 v 0.0469 h 1.709914 z m 1.969205,0.41381 -0.648052,-1.60867 h -0.354542 l -0.643114,1.59632 -0.200025,0.0737 v 0.0469 h 0.508 v -0.0469 l -0.202494,-0.0635 0.202494,-0.51541 h 0.613128 l 0.204611,0.52987 -0.27305,0.049 v 0.0469 h 1.020233 v -0.0469 z m -0.761294,-0.60643 h -0.54222 l 0.26917,-0.68721 h 0.0042" />
    </g>
  </g>
</svg>
