<?xml version="1.0" encoding="utf-8"?>
<!-- Generator: Adobe Illustrator 19.0.0, SVG Export Plug-In . SVG Version: 6.00 Build 0)  -->
<svg version="1.1" id="Layer_1" xmlns="http://www.w3.org/2000/svg" xmlns:xlink="http://www.w3.org/1999/xlink" x="0px" y="0px"
	 viewBox="2103.9 415.4 392.1 124.2" style="enable-background:new 2103.9 415.4 392.1 124.2;" xml:space="preserve">
<style type="text/css">
	.st0{fill:#827662;}
</style>
<path class="st0" d="M2224,415.4h-22.2c2.4,1.2,3.8,4.1,3.8,7.2c0,2.9-0.8,6.8-2.5,11.2l-11.1,30.7l-19.9-49.1h-17.9
	c5,3.8,7.4,11.6,3.7,20.2l-13.1,30.3l-19.8-50.5h-20.9c3.3,2.3,5.9,7.5,8.8,14.8l20.4,51.2c2.7,6.9,5.9,10.5,12.4,13.6l21.3-47.9
	l14.6,34.3c3,6.8,6,10.5,12.5,13.6L2224,415.4z M2271.3,480.2c-5.1,3.8-10.5,5.5-18,5.5c-4.1,0-7.6-0.4-10.3-1v-19.6h5.5
	c6.7,0,9,0.5,10.8,2.5v-11.5H2243v-16.1c0,0,2.5-0.4,7.6-0.4c6,0,10.2,1,12.5,3.6v-11.8h-38.9c3.1,1.7,3.6,4.2,3.6,14.6v33.3
	c0,10.4-0.5,12.9-3.6,14.6h42.6L2271.3,480.2z M2321.7,474.6c0-19.1-29-17.8-29-29.5c0-3.5,3.1-6.4,8.5-6.4c5.7,0,10.6,2,16,7.2
	v-13.6c-5.5-1.4-9.9-2.3-15.4-2.3c-11.9,0-24.1,7.2-24.1,19c0,21.5,29,18.4,29,30.5c0,4.3-3.8,7.4-10.4,7.4c-7.4,0-14.6-3-22-9.4
	l3.9,14.9c6,2.2,11,3.2,16.5,3.2C2310,495.5,2321.7,487.2,2321.7,474.6 M2377.2,431.5h-51l-3.5,11.8c3.8-2.6,7.3-3.6,13.6-3.6h6.1
	v39.7c0,10.4-0.5,12.9-3.7,14.6h22.3c-3.1-1.7-3.6-4.2-3.6-14.6v-39.7h5.4c5.6,0,9.4,0.8,11.3,3.6L2377.2,431.5z M2406.5,494
	c-3.1-1.7-3.6-4.2-3.6-14.6v-33.3c0-10.4,0.5-12.9,3.6-14.6h-22.3c3.1,1.7,3.6,4.2,3.6,14.6v33.3c0,10.4-0.5,12.9-3.6,14.6H2406.5z
	 M2480.6,431.5h-20.4c4.1,2.2,4.5,6.7,4.5,13.6v25.3l-26.2-31.1c-2.1-2.6-4.1-5.2-6.1-7.9h-18c3.7,2.2,5.5,6.2,5.5,14.7v34.2
	c0,6.9-0.5,11.5-4.5,13.6h20.4c-4.1-2.2-4.5-6.7-4.5-13.6v-25.8l27,32c3.8,4.5,8.7,6.4,17.8,7.9v-49.3
	C2476.1,438.2,2476.7,433.7,2480.6,431.5 M2138.2,529.4v5.5c0,1.4,0.2,3.6-1.3,4.2v0.1h5.8V539c-1.6-0.6-1.4-2.8-1.4-4.2v-11.5
	c0-1.4-0.2-3.6,1.4-4.2v-0.1h-5.8v0.1c1.5,0.6,1.3,2.8,1.3,4.2v3.8h-11v-3.8c0-1.4-0.2-3.6,1.3-4.2v-0.1h-5.8v0.1
	c1.6,0.6,1.3,2.8,1.3,4.2v11.5c0,1.4,0.2,3.6-1.3,4.2v0.1h5.8V539c-1.5-0.6-1.3-2.8-1.3-4.2v-5.5L2138.2,529.4z M2162.3,520.8
	c4.8,0,7.6,4.3,7.6,8.7c0,4.5-3,7.9-7.6,7.9c-4.8,0-7.8-4.4-7.8-8.6C2154.6,524.2,2157.6,520.8,2162.3,520.8 M2162.5,518.6
	c-6.4-0.2-11.4,4.7-11.4,10.5c0,6.2,5.1,10.5,11.1,10.5c6,0,11.2-4.5,11.2-10.7C2173.4,523.5,2168.9,518.6,2162.5,518.6
	 M2188.4,521.3h2.7c1,0,2.2,0.2,2.6,1.2h0.1l1-3.6h-0.1c-0.4,0.2-0.9,0.2-1.4,0.2h-12.1c-0.4-0.1-0.8-0.1-1.2-0.2h-0.1l-1.1,3.6h0.1
	c0.9-0.9,2.3-1.2,3.6-1.2h2.7v13.6c0,1.4,0.2,3.6-1.3,4.2v0.1h6V539c-1.6-0.9-1.6-2.1-1.6-3.9L2188.4,521.3z M2207.4,529.4h2.3
	c0.9,0,2.2,0,2.7,0.9h0.1V527h-0.1c-0.4,0.2-0.9,0.2-1.3,0.2h-3.6v-5.7c1-0.2,2-0.2,3.1-0.2c1.4,0,2.6,0.1,3.6,1.2h0.1V519h-0.1
	c-0.4,0.2-0.9,0.2-1.4,0.2h-9.7v0.1c1.6,0.6,1.4,2.8,1.4,4.2v11.5c0,1.4,0.2,3.6-1.4,4.2v0.1h12.7l1.4-4h-0.1
	c-1.5,1.3-3.6,2-5.6,1.8l-3.9-0.4V529.4L2207.4,529.4z M2229.7,536.7v-13.3c0-1.4-0.2-3.6,1.3-4.2v-0.1h-5.8v0.1
	c1.6,0.6,1.4,2.8,1.4,4.2v11.5c0,1.4,0.2,3.6-1.4,4.2v0.1h12.5l1.6-4h-0.1c-1.5,1.3-3.3,2-5.4,1.9L2229.7,536.7z M2259.1,519.3
	c-1.5-0.4-3-0.7-4.5-0.7c-3.7,0-7.6,1.5-7.6,5.3c0,6.4,10.5,5.6,10.5,10.3c0,2.1-2.6,3.2-4.3,3.2c-2.4,0-4.9-1-6.7-2.5l0.9,3.8
	c1.7,0.6,3.6,0.9,5.4,0.9c4.7,0,8.1-3,8.1-6.3c0-5.6-10.5-5.6-10.5-9.7c0-2.1,2.2-2.8,3.9-2.8c1.7,0,3.6,0.7,4.8,1.9L2259.1,519.3z
	 M2293.4,534.9c-1.1,1.4-2.6,2.6-4.5,2.6c-2.3,0-4.3-1.5-4.3-4c0-1.9,1.2-3.4,2.7-4.5L2293.4,534.9z M2287.9,525.5
	c-0.8-0.7-2.1-1.9-2.1-3.2c0-1.2,0.9-1.7,2-1.7c1.1,0,2.1,0.7,2.1,1.9C2289.9,523.8,2288.9,524.9,2287.9,525.5 M2304.4,539.1
	L2304.4,539.1c-5.7-2.7-10.2-7.4-14.7-11.8c1.4-1.2,2.6-2.5,2.6-4.5c0-2.5-1.9-4.2-4.4-4.2c-2.4,0-4.7,1.7-4.7,4.2
	c0,1.7,1.3,3.1,2.4,4.3c-2.2,1.8-4.2,3.6-4.2,6.6c0,3.8,3.4,5.8,6.9,5.8c2.9,0,4.8-1.1,6.3-3.6c0.9,0.9,2.5,2.1,3.6,2.7
	c0.8,0.4,1.8,0.5,2.9,0.5L2304.4,539.1L2304.4,539.1z M2321.8,519.1L2321.8,519.1c1.6,0.7,1.3,2.9,1.3,4.3v11.5
	c0,1.4,0.2,3.6-1.3,4.2v0.1h5.8V539c-1.6-0.5-1.4-2.8-1.4-4.2v-13.6c0.7-0.1,1.4-0.2,2.1-0.2c2-0.1,3.9,1.2,3.9,3.4
	c0,2.9-2.8,4-5.3,4.3l2.8,4.3l3.7,4.6c0.9,1.1,1.9,1.5,3.5,1.5h2.8c-1.7-1.1-3.7-2.7-4.9-4.3l-4.4-5.5c2.5-0.6,4.8-2.7,4.8-5.4
	c0-2.8-2.2-4.9-6.3-4.9H2321.8z M2351.7,529.4h2.3c0.9,0,2.2,0,2.7,0.9h0.1V527h-0.1c-0.4,0.2-0.9,0.2-1.3,0.2h-3.6v-5.7
	c1-0.2,2-0.2,3.1-0.2c1.4,0,2.6,0.1,3.6,1.2h0.1V519h-0.1c-0.4,0.2-0.9,0.2-1.4,0.2h-9.7v0.1c1.5,0.6,1.4,2.8,1.4,4.2v11.5
	c0,1.4,0.2,3.6-1.4,4.2v0.1h12.7l1.4-4h-0.1c-1.5,1.3-3.6,2-5.6,1.8l-3.9-0.4V529.4L2351.7,529.4z M2381.8,519.3
	c-1.5-0.4-3-0.7-4.5-0.7c-3.7,0-7.6,1.5-7.6,5.3c0,6.4,10.5,5.6,10.5,10.3c0,2.1-2.6,3.2-4.4,3.2c-2.4,0-4.9-1-6.7-2.5l0.9,3.8
	c1.7,0.6,3.6,0.9,5.4,0.9c4.7,0,8.1-3,8.1-6.3c0-5.6-10.5-5.6-10.5-9.7c0-2.1,2.2-2.8,3.9-2.8c1.7,0,3.6,0.7,4.8,1.9V519.3z
	 M2402.9,520.8c4.8,0,7.6,4.3,7.6,8.7c0,4.5-3,7.9-7.6,7.9c-4.8,0-7.8-4.4-7.8-8.6C2395.2,524.2,2398.2,520.8,2402.9,520.8
	 M2403.1,518.6c-6.4-0.2-11.4,4.7-11.4,10.5c0,6.2,5.1,10.5,11.1,10.5c6,0,11.2-4.5,11.2-10.7C2414,523.5,2409.5,518.6,2403.1,518.6
	 M2422.4,519.1L2422.4,519.1c1.6,0.7,1.3,2.9,1.3,4.3v11.5c0,1.4,0.2,3.6-1.3,4.2v0.1h5.8V539c-1.6-0.5-1.4-2.8-1.4-4.2v-13.6
	c0.7-0.1,1.4-0.2,2.1-0.2c2-0.1,3.9,1.2,3.9,3.4c0,2.9-2.8,4-5.3,4.3l2.8,4.3l3.7,4.6c0.9,1.1,1.9,1.5,3.5,1.5h2.8
	c-1.7-1.1-3.6-2.7-4.9-4.3l-4.4-5.5c2.5-0.6,4.8-2.7,4.8-5.4c0-2.8-2.2-4.9-6.3-4.9H2422.4z M2454,521.3h2.7c1,0,2.2,0.2,2.6,1.2
	h0.1l1-3.6h-0.1c-0.4,0.2-0.9,0.2-1.4,0.2h-12.1c-0.4-0.1-0.8-0.1-1.2-0.2h-0.1l-1.1,3.6h0.1c0.9-0.9,2.3-1.2,3.6-1.2h2.7v13.6
	c0,1.4,0.2,3.6-1.3,4.2v0.1h6V539c-1.6-0.9-1.6-2.1-1.6-3.9V521.3z M2479.1,519.3c-1.5-0.4-3-0.7-4.5-0.7c-3.7,0-7.6,1.5-7.6,5.3
	c0,6.4,10.5,5.6,10.5,10.3c0,2.1-2.6,3.2-4.3,3.2c-2.4,0-4.9-1-6.7-2.5l0.9,3.8c1.7,0.6,3.6,0.9,5.4,0.9c4.7,0,8.1-3,8.1-6.3
	c0-5.6-10.5-5.6-10.5-9.7c0-2.1,2.2-2.8,3.9-2.8c1.7,0,3.6,0.7,4.8,1.9L2479.1,519.3z M2488,439.5v-2.4h1.6c0.8,0,1.7,0.2,1.7,1.1
	c0,1.2-0.9,1.2-1.9,1.2H2488z M2488,440.5h1.3l2,3.3h1.3l-2.2-3.4c1.1-0.1,2-0.7,2-2.1c0-1.5-0.9-2.2-2.7-2.2h-2.9v7.6h1.2
	L2488,440.5z M2489.4,446.6c3.6,0,6.7-2.8,6.7-6.6c0-3.8-3.1-6.6-6.7-6.6c-3.6,0-6.7,2.8-6.7,6.6
	C2482.7,443.8,2485.7,446.6,2489.4,446.6 M2484,440c0-3.1,2.4-5.5,5.4-5.5c3,0,5.4,2.4,5.4,5.5c0,3.2-2.4,5.5-5.4,5.5
	C2486.4,445.5,2484,443.1,2484,440"/>
</svg>
